<svg width="376" height="137" viewBox="0 0 376 137" fill="none" xmlns="http://www.w3.org/2000/svg">
<path d="M326.501 25.5193V0.876466H257.934L246.657 83.2032L235.499 0.876865H210.772L213.542 22.8443C210.686 17.2168 200.562 0.876865 178.284 0.876865C178.137 0.867265 153.523 0.876865 153.523 0.876865L153.428 120.875L135.406 0.876865L103.022 0.858064L84.3772 125.192L84.3868 0.876066H53.3936L42.2204 70.7147L31.3372 0.876865H0.333984V136.048H24.7484V70.896L35.854 136.047H48.8336L59.7832 70.896V136.047H106.85L109.706 115.247H128.656L131.502 136.047L177.71 136.075H177.748V136.047H177.777H177.806V92.1698L183.47 91.3445L195.198 136.075H195.227H219.071H219.099L219.089 136.047H219.132H219.16L203.77 83.6204C211.57 77.8512 220.376 63.2002 218.032 49.1845V49.1753C218.06 49.3649 232.558 136.133 232.558 136.133L260.984 136.047L280.408 13.5249V136.047H326.502V111.736H304.622V80.7358H326.502V56.055H304.622V25.5193H326.501ZM112.582 93.8123L119.285 36.024L126.245 93.8123H112.582ZM183.55 67.1289C181.671 68.0402 179.712 68.4958 177.804 68.4958V25.0165C177.838 25.0165 177.876 25.0077 177.923 25.0077C179.835 24.9981 194.091 25.5861 194.091 46.5187C194.091 57.4687 189.242 64.3679 183.55 67.1289ZM375.694 111.717V136.028H330.728V0.858064H354.938V111.717H375.694Z" fill="white"/>
</svg>
